<?xml version="1.0" encoding="utf-8"?>
<!DOCTYPE svg PUBLIC "-//W3C//DTD SVG 1.1//EN" "http://www.w3.org/Graphics/SVG/1.1/DTD/svg11.dtd">
<svg version="1.1" id="Layer_1" xmlns="http://www.w3.org/2000/svg" xmlns:xlink="http://www.w3.org/1999/xlink" x="0px" y="0px"
	 viewBox="0 0 1595 1705" enable-background="new 0 0 1595 1705" xml:space="preserve">
<g>
	<path fill="#010101" d="M745.12,39.82c9.9-1.41,19.94-0.52,29.89-1.39c69.5-2.53,139.31,4.94,206.78,21.84
		c15.18,3.49,29.93,8.58,44.8901,12.92c16.21,5.89,32.6499,11.22,48.38,18.35c12.7,5.19,25.1399,10.96,37.37,17.17
		c12.0699,5.58,23.5399,12.31,35.1499,18.78c32.9601,18.66,64.04,40.55,93.17,64.74c30.47,25.39,59,53.14,84.86,83.21
		c52.72,61.43,95.8,131.07,127.4301,205.58c18.8099,44.67,33.86,91.05,43.21,138.65c11.88,3.64,23.5,8.13,34.87,13.17
		c7.0699,3.39,14.5699,6.3199,20.72,11.29c5.3301,6.22,6.23,14.97,6.1801,22.86c0.46,8.08-2.2001,15.85-4.51,23.47
		c-3.98,12.83-9.0601,25.35-11.96,38.5c-0.89,3.63-0.38,7.41-0.9301,11.1c-4.05,49.41-9.99,98.65-14.88,147.99
		c-1.1799,6.88,0.4,13.8,0.86,20.68c8.6901,3.08,17.4401,6.33,25.14,11.49c2.95,2.05,6.27,4.79,6.28,8.73
		c1.98,21.26,3.33,42.61,2.98,63.99c0.36,23.46-1.09,46.92-4.15,70.17c-3.4399,23.28-8.91,46.25-16.0599,68.67
		c-6.3201,19.33-13.4601,38.5499-23.66,56.22c-3.92,6.5699-8.26,13.03-13.88,18.28c-7.38,6.83-17.59,9.25-27.25,10.73
		c-14.1899,2.12-28.54,2.14-42.85,1.99c-1.3,4.67-2.25,9.46-4.1,13.96c-2.53,5.8101-7.3201,10.16-11.89,14.38
		c-10.0701,36.4701-27.49,70.7101-49.14,101.64c-1.16,2.04-4.0801,4.04-2.5601,6.65c5.98,15.9301,3.0601,33.8099-3.76,48.99
		c-3.6599,8.2-8.4199,15.88-13.7699,23.08c1.5199,11.0601,1.1399,22.25,1.0199,33.39c-0.7899,7.79-1.8099,15.9-5.98,22.7201
		c-8.72,15.08-19.95,28.5599-31.9199,41.1399c-41.2101,43.4801-94.8,73.6001-151.01,93.17c-8.65,2.72-17.3301,5.36-25.99,8.03
		c-25.0901,6.63-50.53,11.85-75.99,16.7999c-44.1301,8.55-88.48,16.15-133.1501,21.14c-39.8,4.6801-79.8199,6.92-119.8799,7.92
		c-28.3701-0.25-56.76,0.61-85.11-0.78c-38.39-0.86-76.8-2.62-114.95-7.0699c-46.09-5.4501-91.8799-13.42-137.14-23.7101
		c-39.45-8.98-78.56-19.58-116.98-32.2999c-20.08-6.76-40.09-13.78-59.61-22.0601c-19.88-8.4-39.59-17.6-57.39-29.9099
		c-16.05-11.3601-31.44-23.7201-45.46-37.51c-7.38-7.6801-14.53-15.65-20.27-24.63c-4.66-7.3-8.74-15.23-10-23.88
		c-0.99-15.02-1.22-30.0901-0.33-45.11c-6.17-7.55-11.93-15.67-15.2-24.9401c-1.09-3.22-2.15-6.5699-1.9-10
		c0.71-17.03,1.57-34.0699,3.41-51.02c-15.66-13.45-29.66-28.73-42.25-45.0499c-24.74-32.01-44.81-69.02-50.57-109.51
		c-0.45-5.1801-1.18-10.3401-1.2-15.54c0.12-3.08-1.42-5.8099-2.34-8.64c-8.51-23.46-13.62-48.38-12.75-73.4
		c0.74-27.8099,9.79-54.7899,22.39-79.39c7.24-14.42,16.01-28,24.82-41.5c-4.72-6.77-6.74-14.92-8.53-22.85
		c-3.2-15.54-5.56-31.33-5.68-47.21c0.97-33.06,8.82-65.52,19.11-96.83c3.24-9.54,6.56-19.09,10.82-28.23
		c0.61-1.26,1.09-2.59,1.1-3.99c1.3-13.27,0.47-26.61,0-39.9c0.05-5.35-0.14-10.69-0.65-16.02c-1.21-24.09-2.73-48.19-5.46-72.17
		c-0.04-2.32-1.35-4.29-2.37-6.28c-6.94-12.61-12.43-26.3-13.98-40.7c-0.76-7.28,3.16-14.2,8.7-18.66
		c9.81-7.7599,22.35-11.2,34.59-12.65c2.26-11.62,3.83-23.39,6.92-34.85c11.24-45.12,30.67-87.85,54.3-127.77
		c28.16-47.56,62.2-91.56,100.61-131.25c71.54-74.77,158.14-135.13,253.28-175.89C601.63,62.61,672.82,44.5,745.12,39.82
		 M747.12,64.76c-31.36,1.86-62.53,6.44-93.26,12.92c-71.71,15.79-140.78,43.14-204.25,80.02
		c-77.25,44.99-146.96,103.02-204.75,171.25c-35.49,42.42-66.4,88.96-89.38,139.35c-1.19,2.5-2.04,5.2-3.66,7.47
		c-1.57,5.24-3.93,10.19-5.82,15.32c-11.35,29.87-19.86,61.12-22.06,93.1c-0.47,7.07-1.57,14.21-0.37,21.28
		c0.64-5.49,0.18-11.03,0.47-16.53c2.82-33.79,10.84-67.14,23.1-98.72c0.78-2.43,1.59-4.9,3.05-7.01c1.51-4.83,3.28-9.69,5.94-14.01
		c0.69-1.69,1.19-3.44,1.98-5.08c8.91-19.01,19.34-37.33,31.34-54.57c30.51-44.07,71.27-80.89,118.01-107.12
		c47.7-26.78,100.27-43.87,153.62-55.22c33.89-7.15,68.29-11.7,102.78-14.62c9.28-1.1,18.7-1.11,27.91-2.78
		c11.03-6.13,19.93-16.31,32.46-19.6c10.91-1.2,21.88-0.01,32.82-0.2c24.66,1.34,49.34,2.47,73.85,5.52
		c5.22,0.85,11.39,1.07,14.94,5.6c4.2599,4.82,2.99,11.6,3.18,17.48c110.01,15.3,218.1,47.08,317.47,97.01
		c68.12,34.33,131.8101,78.05,186.3,131.57c20.8199,20.3,39.9299,42.27,58.2999,64.8c24.9601,30.58,48.17,62.63,68.63,96.41
		c9.27,15.06,17.66,30.64,26.55,45.92c4.08-1.22,6.5-4.98,9.76-7.47c16.61-15.27,33.1899-30.69,47.7999-47.92
		c6.3501-7.55,12.54-15.42,16.64-24.45c0.75-2.02,2.1901-4.19,1.1-6.36c-10.1-32.71-22.5499-64.68-36.75-95.82
		c-32.85-71.2-75.5699-137.98-127.4399-196.83c-65.51-74.68-146.73-136.05-237.9301-175.83c-14.2699-5.88-28.4299-12.04-43.11-16.86
		c-16.4399-6.3-33.4399-10.88-50.29-15.9c-9.31-2.33-18.66-4.46-27.98-6.72c-10.61-2.69-21.46-4.23-32.19-6.28
		c-15.13-2.97-30.47-4.48-45.75-6.35c-25.58-2.93-51.33-3.68-77.06-4.47c-11.06-0.33-22.1,0.35-33.14,0.79
		C762.33,64.25,754.67,63.54,747.12,64.76 M627.18,225.13c-7.02,2.54-12.78,7.53-18.75,11.85c23.21,0.01,46.43,0.41,69.59,2
		c18.74,0.57,37.36,2.91,56.02,4.71c-0.49-4.06-0.32-8.14-0.23-12.21c-10.21-1.56-20.5-2.23-30.75-3.29
		C677.79,226.79,652.51,224.29,627.18,225.13 M550.97,256.01c-38.39,2.69-76.64,8.46-113.93,18.1
		c-48.18,12.55-94.6,32.72-135.56,61.17c-28.38,20.14-54.87,43.25-77.15,70.06c-29.11,35.02-50.41,76.61-61,120.95
		c-7.77,32.9-10.14,67.2-5.96,100.78c1.68-10.05,4.47-19.87,6.85-29.76c1.19-4.37,0.61-8.92,0.82-13.38
		c4.36-64.4,27.46-127.78,67.11-178.88c30.58-39.27,70.67-70.7,115.11-92.9c39.37-19.94,82.1-32.47,125.33-40.7
		c18.37-3.43,36.86-6.36,55.5-7.72c20.53-2.49,41.23-2.61,61.86-3.69c15.99,0.3,32.02-0.29,47.99,0.81
		c21.42,0.48,42.8,1.83,64.14,3.68c65.25,5.58,130.17,16.37,193.33,33.88c75.05,20.4,147.47,50.88,214.03,91.17
		c64.9601,39.4,123.9801,89.15,171.8201,148.3c11.17,13.89,22.26,27.93,31.5699,43.17c10.51,16.52,20.17,33.58,29.3501,50.88
		c18.47,35.16,34.99,71.46,47.3899,109.23c7.64,23.91,13.8301,48.61,14.2401,73.83c0.09,3.89-0.8201,8.67,2.7899,11.36
		c5.87,4.58,14.02,5.2401,21.2001,4.48c-3.9301-2.19-9.8401-2.11-11.65-6.99c-3.39-8.84-4.1-18.4301-6.01-27.64
		c-2.36-14.1-4.75-28.18-7.13-42.27c-4.1-23.58-13.61-45.75-23.74-67.28c-7.78-15.94-16.14-31.58-25.0601-46.89
		c-20.59-35.36-43.33-69.45-67.95-102.13c-21.39-28.28-44-55.73-69.23-80.69c-16.0901-15.11-33.53-28.75-51.75-41.2
		c-34.2101-23.3-70.38-43.64-107.76-61.38c-55.97-26.74-114.46-48.12-174.24-64.61c-17.9301-5.31-36.25-9.13-54.41-13.54
		c-13.84-2.93-27.78-5.39-41.67-8.1c-18.31-2.89-36.65-5.71-55.06-7.82c-11.36-0.98-22.69-2.13-34.03-3.24
		c-17.69-1.16-35.39-1.96-53.09-2.82C613.66,253.69,582.25,253.48,550.97,256.01 M550.97,280.02c-20.95,1.86-41.97,3.18-62.75,6.63
		c-43.73,6.71-86.99,17.98-127.4,36.18c-42.76,19.2-81.85,46.95-113.06,82c1.76,4.96,3.19,10.68,7.62,14
		c4.59,1.81,9.51-0.57,13.6-2.67c42.69-27.3,89.34-48.08,137.42-63.9c69.03-22.61,141.94-33.87,214.59-31.27
		c5.51-0.13,11,0.28,16.47,0.85c23.68,1.14,47.11,4.88,70.47,8.76c14.78,2.19,29.28,5.89,43.93,8.82
		c65.09,15.02,128.5,36.8,190,62.78c45.73,19.46,90.54,41.08,134.16,64.9c16.39,8.86,32.5599,18.1,48.9199,27.02
		c8.53,4.1,17.52,7.69,26.9901,8.83c8.73,0.84,17.61-2.1,24.33-7.68c8.28-6.61,14.35-15.49,19.85-24.43
		c-83.75-70.51-184.16-119.52-289.05-149.63c-63.05-18.14-127.86-29.91-193.12-36.32c-30.21-2.99-60.53-4.61-90.87-5.87
		c-15.02-0.02-30.05-0.05-45.07-0.01C568.99,279.25,560,280.18,550.97,280.02 M239.79,366.77
		c-55.49,52.91-92.14,124.46-105.45,199.76c-2.55,15.05-4.21,30.35-3.16,45.62c0.35,1.85,0.56,4.23,2.54,5.1
		c5.58,3.47,12.4,3.98,18.81,3.73c-2.31-18.25-3.47-36.73-1.87-55.09c2.62-43.87,15.35-87.07,36.65-125.49
		c18.27-32.65,42.41-61.92,70.36-86.72c9.47-8.94,19.9-16.78,29.99-24.99C270.62,339.93,254.57,352.69,239.79,366.77 M519.91,341.15
		c-45.56,7.13-90.35,19.09-133.52,35.3c-38.03,14.53-75.26,31.56-109.95,52.97c-7.4,3.98-16.14,6.35-24.44,3.96
		c-5.07,4.94-8.9,10.92-13.2,16.49c-14.06,20.45-25.49,42.56-35.94,65.03c-15.44,34.15-28.14,69.56-38.01,105.71
		c1.39-2.3,2.47-4.77,3.65-7.17c17.19-35.12,38.47-68.32,64.01-97.97c26.29-30.97,57.81-57.33,92.35-78.66
		c59.59-36.12,127.97-56.7,197.19-62.92c12.23-1.85,24.61-1.71,36.91-2.79c19.34-0.63,38.71-0.66,58.06-0.08
		c7.34,0.25,14.66,1.16,22.02,1.04c108.08,7.38,216.04,26.93,317.61,65.38c25.63,9.44,50.5099,20.8,75.0499,32.77
		c20.38,10.64,40.5701,21.68,59.89,34.15c15.8401,10.35,31.4501,21.07,46.3101,32.79c30.46,23.94,58.34,51.18,82.78,81.25
		c24.2599,30.4,44.8999,63.8199,60.4099,99.52c14.2001,32.08,23.9501,66.02,30.26,100.5c3.42,18,5.0701,36.25,6.6,54.48
		c0.12,15.38,1.8,30.75,0.62,46.12c-0.8099,9.27-0.0399,18.63-1.4199,27.86c-0.64,8.76-1.63,17.5-2.36,26.26
		c-3.26,22.97-6.4301,46.02-12.3201,68.51c-5.4,21.38-12.53,42.34-21.28,62.59c-15.7999,37.04-37.7999,71.37-64.4199,101.5701
		c-26.67,30.2999-58.2001,56.1299-92.24,77.74c-36.55,22.95-76.01,41.08-116.75,55.24c-89.23,30.74-183.84,42.96-277.85,45.22
		c-24.96-0.1901-49.95,0.5699-74.88-0.98c-8.04,0.2899-16-1.02-24.02-1.04c-71.27-4.34-142.28-14.21-211.92-30.21
		c-23.71-5.6-47.36-11.5701-70.49-19.25c-38.07-12.99-73.97-32.47-105.25-57.8101c-31.53-25.53-58.59-56.45-80.29-90.71
		c-24.35-38.45-42.68-80.63-54.93-124.4301c0.24,43.3401,2.89,86.87,11.94,129.3501c4.5,20.38,10.49,40.5599,19.76,59.3199
		c1.73,3.6899,5.12,6.16,7.88,9.04c14.51,14.0299,30.47,26.49,47.1,37.8999c36.25,24.55,75.7,44.1001,116.44,59.9901
		c41.16,15.8899,83.52,28.73,126.6,38.2699c7.99,1.62,15.91,3.76,24.01,4.7101c3.1-2.0801,6.08-4.76,9.99-5.04
		c6.69-0.25,13.37-0.63,20.07-0.66c19.48,0.41,39.16,0.67,58.24,5.0701c6.62,1.74,14.48,3.96,17.4,10.9
		c11.1,0.74,22.23,0.7899,33.34,1.5099c16.71-0.08,33.42,0.8601,50.14,0.52c58.13-0.2,116.2-3.87,173.83-11.45
		c89.34-11.77,177.73-32.95,261.46-66.55c77.35-31.0399,150.64-73.01,214.5601-126.6699c28.6899-23.3301,52.85-51.9601,72.11-83.48
		c-0.78,0.08-2.34,0.24-3.12,0.3199c-4.42-36-7.22-72.3199-5.9-108.64c2.05-39.58,9.13-78.88,20.01-116.99
		c6.39-20.61,13.35-41.41,24.8-59.84c4.98,0.44,9.98,0.5,14.99,0.67c3.1799,12.63,5.9399,25.37,9.1899,37.99
		c-1.71,1.5-3.35,3.07-4.98,4.65c13.36,3.88,21.27,17.08,24.74,29.77c2.5699-17.33,4.02-35.52-1.51-52.45
		c-3.52-10.16-8.95-20.17-17.78-26.66c-1.5399,1.97-3.09,3.93-4.6899,5.84c-7.78,0.71-16.14,1.36-23.3301-2.25
		c-4.8999-2.35-8.9399-7.12-9.4299-12.64c0.04-15.57-2.08-31.1-5.79-46.21c-5.45-22.77-13.53-44.82-22.5599-66.4
		c-15.3201-36.31-33.61-71.35-54.0601-105.04c-10.2899-16.75-21.12-33.23-33.84-48.25c-23.71-29.71-50.49-56.88-79.23-81.71
		c-3.36,9.77-8.24,19.15-15.27,26.79c-6.45,6.82-15.03,11.79-24.4,13.08c-6.87,1.39-13.88,0.0699-20.5699-1.52
		c-8.67-2.43-17.12-5.68-25.02-9.99c-20.87-11.26-41.65-22.7-62.78-33.46c-95.9-49.39-196.3-91.42-301.52-116.24
		c-17.7599-3.67-35.4-8.01-53.4-10.45c-34.46-6.25-69.54-8.91-104.55-7.83C568.53,335.13,544.11,337.44,519.91,341.15
		 M565.07,391.14c-11.69,1.09-23.47,1-35.15,2.32c-11.63,1.48-23.36,2.24-34.9,4.35c-11.84,2.06-23.76,3.71-35.39,6.78
		c-58.3,12.98-114.49,37.5-161.55,74.57c-33.83,26.34-62.88,58.64-86.53,94.37c-24.38,36.6899-43.03,76.96-57.42,118.52
		c-29.78,86.36-40.83,178.03-42.65,268.97c-0.59,16.34-0.35,32.7-0.08,49.05c0.75,7.31,2.39,14.4901,3.87,21.68
		c10.57,47.35,28.48,93.09,53.29,134.8c22.32,37.2999,50.66,71.2799,84.93,98.1699c30,23.8,64.32,42.03,100.66,54.04
		c20.72,6.74,41.88,12.04,63.08,17c72.5,16.63,146.5,26.4,220.73,30.22c11.0099,0.0601,21.98,1.37,33,1.01
		c87.82,2.04,176.17-4.8199,261.74-25.3c41-9.83,81.31-22.8799,119.68-40.4099c35.85-16.29,70.13-36.3301,100.87-61.02
		c30.77-24.46,57.87-53.6,79.5601-86.42c25.0399-37.71,42.46-80.25,52.6799-124.2799c4.37-18.3,6.8101-36.9601,9.5-55.55
		c2.62-23.58,4.4401-47.29,4.04-71.05c-0.05-45.54-6.8101-91.1-20.49-134.57c-3.0601-11.07-7.66-21.61-11.5901-32.38
		c-12.1499-29.25-27.3899-57.25-45.7699-83.07c-22.7201-32.43-50.1901-61.37-80.2401-87.08
		c-29.8999-25.24-62.5199-47.21-96.84-65.97c-47.71-26.36-98.6-46.6-150.67-62.52c-69.16-21.05-140.59-34.18-212.46-41.37
		c-19.59-1.89-39.2-3.68-58.8799-4.19c-5.71-0.4-11.41-0.95-17.13-0.81C591.67,391.09,578.36,390.81,565.07,391.14 M171.94,566.02
		c-0.4,2.47-1.09,4.93-0.84,7.47c7.58-24.06,16.3-47.79,26.67-70.79c9.22-20.5,20.03-40.37,33.48-58.41
		c4.47-5.32,8.51-11.07,13.74-15.68c-3.22-4.07-5.25-9.11-5.18-14.34C204.43,457.79,181.22,510.79,171.94,566.02 M1288.0601,521.62
		c1.8999,2.52,2.87,5.76,5.4099,7.77c11.89,15.96,23.11,32.41,34.03,49.05c21.9301,33.93,42.42,68.89,59.52,105.53
		c9.49,21.03,18.34,42.6201,22.4199,65.44c3.4501,21.14,6.3501,42.38,10.04,63.4901c0.73,3.41,1.12,7.1,3.3201,9.96
		c7.21,0.68,14.6599,2.1,20.3999,6.86c15.1101,11.79,20.9501,31.76,21.17,50.25c0.62,34.05-9.13,67.07-17.54,99.73
		c-2.83,11.59-6.7899,23.15-6.51,35.24c-0.48,17.34-0.2799,34.69-0.3199,52.04c-0.1899,9.36,0.86,18.6901,1.12,28.05
		c0.8101,6.2,1.05,12.58,3.24,18.51c0.9501,2.88,3.7001,4.47,6.27,5.73c5.4399,2.58,11.47,3.45,17.38,4.34
		c-3.3201-8.4399-3.77-17.58-4.73-26.49c-0.8201-16.03-1.54-32.0699-1.27-48.12c1.52-47.17,10.52-93.67,20.28-139.73
		c4.9099-20.95,6.24-42.49,8.4199-63.83c1.8101-25.53,3.6801-51.1,3.26-76.73c-6.6,6.28-11.86,13.77-17.63,20.79
		c6.3301,9.93,11.5801,21.5,9.61,33.57c-1.8999,11.27-1.3999,22.77,0.52,34c-0.72,0.2-2.1599,0.6-2.89,0.8
		c-1.36-5.52-1.7799-11.2-2.21-16.85c-0.48-9.09,2.09-18.02,1.58-27.09c-1.24-8.94-5.6699-17.04-10.6399-24.43
		c6.8899-8.43,12.85-17.99,21.6899-24.54c-0.5699-7.52-0.51-15.15-1.85-22.57c-9.3301-3.4-18.61-6.92-27.9-10.42
		c-9.6899,5.9901-22.95,5.53-32.1801-1.15c-4.37-3.08-6.7699-7.99-9.7799-12.24c-11.4-17.2-21.37-35.28-31.7201-53.12
		c-11.12-19.35-22.71-38.45-35.2799-56.91C1334.84,578.11,1311.75,549.55,1288.0601,521.62 M95.75,580.76
		c-3.75,2.49-7.74,6.32-6.78,11.29c1.37,11.91,5.75,23.29,11.22,33.88c1.62,3.24,3.74,6.42,3.9,10.16
		c2.99,26.53,3.55,53.24,4.88,79.89c-0.07,12.33,0.46,24.66,0.05,36.99c-0.07,8.1,0.23,16.8-3.99,24.05
		c-7.68,16.73-13.64,34.22-18.85,51.87c-6,20.58-10.47,41.69-12.18,63.08c-0.76,14.21,0.28,28.41,2.37,42.46
		c1.65,9.79,2.99,19.96,7.9,28.77c4.42-6.66,9.03-13.19,13.73-19.66c0.76-38.57,4.09-77.05,8.89-115.31
		c-7.68,25.71-15.13,51.81-16.83,78.72c-0.49,7.81,0.74,15.59,2.42,23.2c-3.19-5.89-4.94-12.48-5.61-19.11
		c-2.11-14.95-0.01-30.06,2.34-44.84c4.43-24.13,11.27-47.95,21.95-70.08c2.21-4.84,2.27-10.28,3.56-15.37
		c2.06-11.65,4.87-23.34,7.09-34.83c-1.06-0.3-2.13-0.47-3.22-0.51c-0.9-9.78-0.91-19.6299-1.79-29.42
		c-3.64-7.79-6.38-16.28-5.83-24.98c-0.5-4.65,1.54-9.09,4.63-12.44c-3.82-5.87-5.1-12.92-6.37-19.68
		c-1.08-14.52-3.38-28.9-5.15-43.35c5.72,13.36,9.11,27.64,11.6,41.93c1.12,5.7,3.25,11.1201,5.34,16.52
		c8.13-5.82,17.45-9.66,26.83-12.98c2.59-6.91,6.09-13.59,7-21c0.82-4.41-0.61-8.73-1.17-13.05c-5.83,0.41-11.85,0.64-17.47-1.22
		c-12.01-3.52-19.49-16.46-18.72-28.64c0.68-8.84-0.07-17.79,1.62-26.54C111.01,573.11,102.86,576.02,95.75,580.76 M1468.25,624.25
		c-12.58,15.63-27.36,29.36-42.89,42.01c-5.5599,4.17-10.66,9.21-17.11,11.96c8.34,14.7,16.75,29.38,26.24,43.38
		c3.14,4.08,8.4401,5.85,13.4,6.39c7.5,0.7,14.6899-2.59,20.53-7.05c-4.64-0.04-9.8501,1.58-14-1.22
		c-5.17-3.55-7.16-9.93-8.5901-15.72c-3.0399-14.16-3.14-28.75-2.6499-43.16c8.1599-7.71,16.49-15.25,24.2599-23.36
		c4.88-5.48,10.55-10.44,13.91-17.07c1.79-3.08,5.78-2.37,8.78-2.43c-1.95-6.89-3.83-13.81-5.59-20.75
		C1480.85,607.17,1474.8199,616.01,1468.25,624.25 M1487.71,626.72c-4.8199,7.33-11.27,13.35-17.37,19.58
		c-6.12,6.03-12.14,12.17-18.4099,18.05c-0.38,14.06-0.6101,28.51,3.6,42.09c1.1,2.6,2.34,6.97,5.98,6.37
		c6.49-0.51,13.08-1.18,19.54,0.06c7.6499,1.16,14.61,6.72,16.8999,14.2c3.1101,9.64,3.9401,19.84,4.3,29.9
		c1.11,15.32,0.02,30.67-0.29,45.9901c-1.02,17.7-2.2799,35.38-3.99,53.02c-1.98,18.13-3.53,36.39-7.8099,54.16
		c-8.42,38.24-16.13,76.75-19.7101,115.77c-2.22,25.01-1.7799,50.2-0.1,75.23c0.86,6.61,1.13,13.45,3.7101,19.7
		c0.83,2.9501,4.3799,3.0901,6.9299,3.2201c3.74,0.0399,8.16,0.8099,11.3101-1.7001c0.86-2.6899,0.5699-5.6,0.73-8.38
		c1.1599-16.37,2.1-32.75,3.34-49.12c2.15-24.29,3.6901-48.77,8.87-72.67c3.5601-16.9,14.55-30.83,21.1801-46.45
		c-0.88-10.59-2.67-21.08-4.01-31.61c-1.01-8.69-3-17.32-2.42-26.12c3.64-52.63,8.62-105.17,11.67-157.84
		c2.83-19.61,11.89-37.69,15.34-57.15c0.08-6.97,0.91-14.87-3.24-20.89c-7.74-5.19-16.4-8.93-24.71-13.13
		C1508.85,634.35,1498.73,629.13,1487.71,626.72 M124.51,682.56c-1.88,1.72-3.92,3.7-4.38,6.33c-0.61,5.71,0.25,11.47,1.67,17
		c0.93,3.69,2.87,7.19,2.75,11.09c-0.2,7.54-0.95,15.05-1.93,22.52c-0.24,1.74-0.78,3.51-0.3,5.28
		c6.11-25.8701,13.71-51.45,22.87-76.4301C138.03,672.67,130.85,677.07,124.51,682.56 M1474.6,720.88
		c-1.9299,3.31-4.3199,6.36-7.26,8.84c8.25,2.97,16.4401,6.09,24.65,9.2c-1.16-4.05-1.5599-8.43-3.75-12.09
		C1485.25,722.39,1479.6801,720.89,1474.6,720.88 M1412.25,843.64c-5.9,9.8-10.34,20.39-14.51,31.02
		c-8.5,22.15-14.66,45.14-19.49,68.36c-4.67,22.71-8.3199,45.69-9.58,68.86c-1.3,15-0.5,30.09-0.66,45.13
		c1.14,21.73,2.54,43.45,5.12,65.0699c4.86-8.09,9.35-16.38,13.6899-24.75c-0.1799-0.2999-0.5499-0.88-0.73-1.1799
		c-0.84-8.7101-1.6899-17.4501-3.14-26.0801c-0.0199-3.08,1.5901-5.84,2.53-8.6899c6.91-17.4401,14.5801-34.5601,22.3201-51.64
		c1.7799-4.09,4.1599-8.14,4.2-12.72c0.05-5.68,0.26-11.42-1.08-16.98c4.1599-2.86,8.4299-5.56,12.62-8.37
		c4.11-3.67,9.33,0.31,13.88,0.93c-2.9401,0.9901-5.9301,1.77-8.9,2.58c-3.54,2.5-7.04,5.06-10.5801,7.54
		c0.05,7.55,1.3401,15.48-1.4299,22.72c-9.2,20.64-18.9401,41.08-26.89,62.2499c3.4401,0.0801,6.91,0.27,10.37,0.05
		c0.99-1.0699,1.3101-2.5699,1.9401-3.85c7.8199-19.55,16.96-38.5601,24.73-58.12c0.5699-6.11,1.2899-12.24,2.88-18.19
		c1.6599,4.07,1.76,8.53,2.5699,12.81c2.63-13.02,6.21-25.83,9.5701-38.68c0.7-2.84,0.23-5.79-0.29-8.61
		c-2.16-11.99-5.38-23.97-10.9301-34.86c-5.7999-2.74-11.86,0.84-17.6,1.95c-0.12-6.17,0.96-12.26,1.1801-18.4
		c-10.48,20.63-16.01,43.39-19.91,66.09c-1.8101,9.75-1.92,19.87-5.3,29.28c-2.1799-10.69,0.15-21.54,1.2101-32.21
		c2.11-15.24,5.0299-30.43,9.9199-45.04c5.63-16.91,13.38-33.71,26.17-46.44c-2.3101-10.05-4.45-20.14-6.53-30.23
		C1417.13,843.36,1414.6899,843.51,1412.25,843.64 M1418.4301,894.25c0.5199,5.58,0.5399,11.19,1.22,16.76
		c5.65-0.19,13.1699-0.98,16.2999,4.97c4.8201,10.22,6.87,21.48,8.99,32.51c2.3701-8.44,4.05-17.06,5.79-25.65
		c-4.63-14.9-11.64-30.59-25.6899-38.8C1422.63,887.28,1419.91,890.45,1418.4301,894.25 M1528.33,925.88
		c0.64,4.68,0.7201,9.42,1.3101,14.12c1.28-2.96,2.39-5.98,3.28-9.08C1531.86,928.84,1530.16,927.24,1528.33,925.88 M1542.39,926.61
		c1.7999,5.82-0.64,11.63-2.96,16.9c-5.1101,11.22-11.3301,21.89-16.91,32.88c-3.1801,6.06-5.8201,12.44-7.11,19.19
		c-4.67,22.82-6.1,46.1299-8.03,69.29c-1.53,23.0699-3.12,46.13-4.71,69.1901c-1.0801,10.33-1.5,20.7599-3.6801,30.95
		c-0.6899,3.12-1.86,6.6-4.92,8.14c-5.2999,2.36-11.2999,1.7999-16.8899,1.11c-20.26-1.85-40.01-7.5701-60.26-9.23
		c-5.5701,3.6599-9.8,9.13-12.9801,14.9299c-2.3199,3.8401-1.75,8.4701-3.2,12.5901c-1.38,4.22-4.4399,7.87-8.33,9.99
		c-4.1,2.24-8.9601,1.71-13.39,1.0499c-8.03,12.48-17.86,23.6801-28.22,34.26c-13.5601,14.14-27.49,27.9401-42.28,40.79
		c-29.88,26.28-62.78,49.04-97.46,68.53c-35.3,19.74-72.3,36.2899-109.9901,50.88c-83.6799,31.87-170.6099,55.1699-258.95,69.72
		c-46.4,7.5499-93.21,12.75-140.18,14.65c-6.64,0.62-13.3,0.6499-19.96,0.5699c1.63,7.22,0.79,14.6901,1.7,22.02
		c0.63,16.98,0.54,33.99,0.31,50.99c16.33,0.16,32.66-0.36,48.97-0.98c12.4,0.27,24.7599-1.0701,37.15-1.0701
		c17.64-1.01,35.28-1.75,52.91-2.9299c44.81-2.92,89.52-7.55,133.95-14.1801c47.29-6.99,94.23-16.58,140.22-29.6599
		c38.9501-11.3301,77.4701-24.5,114.3201-41.53c55.1799-23.8101,104.8-60.84,142.25-107.9301c25.37-32,45.95-68.0699,58.79-106.9199
		c-5.54,3.6499-11.2201,7.3899-17.75,8.9399c-2.62-0.85-4.2201-3.13-4.3601-5.83c-1.5399-12.5601,1.25-25.11,1.6201-37.65
		c-1.13-0.86-2.25-1.7-3.3401-2.54c1.86,0.1801,3.63,0.88,5.14,2.02c2.48,11.78,1.87,23.9,3.3,35.8201
		c8.13-4.27,16.02-9.29,22.5299-15.8301c4.76-4.54,6.51-11.0599,9.2201-16.84c-3.4-0.01-7.48-1-10.04,1.89
		c-5.6,5.51-9.05,12.72-12.96,19.4299c-0.3101-7.0299,1.7-14.0699,5.21-20.12c2.65-4.59,7.21-8.8099,12.86-8.5299
		c11.7001,0.12,23.4-0.17,35.09-0.76c10.5701-1.1901,21.4501-2.01,31.3-6.39c6.64-2.9701,11.0601-9.1,15-14.9701
		c9.95-15.62,16.59-33.0499,22.5699-50.5c7.1101-21.5499,12.77-43.59,16.79-65.9299c4.41-24.74,5.52-49.9,5.92-74.99
		c0.01-22.34-1.0601-44.68-3.12-66.92C1546.71,928.93,1544.04,928.09,1542.39,926.61 M76.74,984.62
		c-14.4,25.03-27.18,51.66-31.73,80.4301c-4.01,23.83-2.1,48.4199,4.17,71.7c6.31,23.52,16.42,45.83,27.97,67.21
		c8.61,16.37,18.97,31.8401,31.1,45.8101c22.87,26.4,50.48,48.34,79.88,67.0499c37.22,23.7401,77.2,42.89,118.29,58.9
		c39.33,15.28,79.62,28.14,120.63,38.11c7.57,0.5601,15.18-0.0699,22.72-0.8999c3.38-3.7001,6.36-7.7401,9.51-11.62
		c-18.51-2.4701-36.79-6.42-55-10.51c-23.44-5.52-46.72-11.77-69.59-19.3401c-40.9-13.6-80.94-30.21-118.39-51.64
		c-34.82-20.1799-67.54-44.62-94.31-74.8199c-25.98-29.48-47.56-63.6899-58.22-101.77c-6.76-25.34-8.86-52.16-4.52-78.09
		c4.62-30.76,17.27-59.85,33.97-85.92c1.53-2.62,4.21-4.91,4.23-8.14c0.19-6.85,0.18-13.7,0.38-20.54
		C90.59,961.77,83.37,973.02,76.74,984.62 M66.95,1099.98c-0.22,8.22,1.91,16.22,2.62,24.37c1.25-14.46,2.97-28.96,6.92-42.97
		c4.04-15.22,10.21-30.22,20.38-42.41c1.68-1.5399,1.32-3.9299,1.5-5.95c0.16-6.3301,1.33-12.74-0.29-18.96
		c-0.41-11.06-0.5-22.13-0.68-33.19C77.36,1017.05,64.06,1058.25,66.95,1099.98 M1406.01,1070.08
		c-1.95,4.4401-2.45,9.4601-5.16,13.54c-17.46,39.8101-41.98,76.6901-72.9299,107.29c-12.9,12.88-27.12,24.3199-41.39,35.63
		c-64.6901,50.72-137.8201,90.1799-214.5901,119.2899c-83.22,31.5801-170.64,51.36-258.9,62.14
		c-67.65,8.1801-135.9,11.3401-204.04,9.63c-12.87-0.6699-25.77-0.48-38.62-1.52c3.68,5.14,8.38,9.54,13.6,13.11
		c1.11,0.88,2.55,1.0901,3.95,1.0901c43.35-0.02,86.75,0.4099,129.99-2.8401c96.27-5.98,191.53-24.5299,284.09-51.4399
		c37.29-10.99,74.29-23.1,110.41-37.52c39.4199-15.63,78.0399-33.62,113.99-56.21c46.49-28.77,87.5399-65.23,127.23-102.5801
		c8.74-8.3999,16.04-18.1599,22.72-28.24c22.08-34.1499,38.67-71.47,53.9401-109.0499c1.0399-2.3101,0.73-4.89,0.8199-7.3301
		c-0.04-8.48,0.01-16.96-0.03-25.4299C1423.75,1030.2,1415.11,1050.26,1406.01,1070.08 M74.84,1134.04
		c-0.19,3.1-1.46,6.33-0.32,9.38c2.89,8.89,5.93,17.72,10,26.1499c9.45,20.4801,21.24,39.9901,35.69,57.3401
		c-7.15-20.7201-11.78-42.2101-15.09-63.85c-3.42-22.8701-5.6-45.9401-6.36-69.05c-1.16-15.5-0.64-31.05-0.78-46.5701
		C84.46,1074.36,77.95,1104.23,74.84,1134.04 M1402.11,1118.09c-9.72,19.5801-20.53,38.76-34.1899,55.9
		c-8.65,10.3-18.6801,19.34-28.4401,28.5701c-15.28,14.3899-30.75,28.59-46.95,41.9399c-31.3401,25.9399-65.3,48.73-101.3201,67.66
		c-35.26,18.6699-72.25,33.86-109.7999,47.26c-37.61,13.21-75.82,24.6499-114.36,34.7999
		c-90.15,23.54-182.88,37.6901-276.03,40.2001c-14.41,0.63-28.85,0.3099-43.25,1.13c4.42,0.1599,8.85,0.1399,13.28,0.2699
		c2.63,2.8401,3.89,6.54,4.41,10.3301c1.27,9.26,1.58,18.63,1.45,27.99c-0.89,0.83-1.78,1.6899-2.66,2.5599
		c116.84-1.7,233.01-22.12,344.78-55.86c38.5699-11.9299,76.75-25.2,114.02-40.76c40.0599-16.64,79.23-35.7699,115.74-59.3099
		c31.01-19.86,59.97-42.89,86.39-68.54c11.86-11.77,23.7999-23.49,34.6399-36.22c6.7401-7.86,12.4-16.55,17.9601-25.26
		c21.22-34.72,37.9199-71.97,53.2899-109.5699c1.29-2.54,0.92-5.4301,0.88-8.16c-0.37-7.72-0.63-15.4401-0.63-23.15
		C1422.7,1073.0601,1412.96,1095.85,1402.11,1118.09 M1388.75,1073.79c0.37,6.1799,0.1899,12.38,0.4,18.58
		c2.99-6.05,5.65-12.25,8.11-18.54C1394.41,1073.79,1391.58,1073.79,1388.75,1073.79 M1425.8199,1113.96
		c4.7101,3.5801,9.3101,7.5801,12.4801,12.65c2.1599,3.1901,2.4399,7.36,1.12,10.9401c-2.5901,6.9099-6.8101,13.0599-11.13,18.99
		c9.2799,1.08,18.45,2.9099,27.6799,4.35c10.6801,1.63,21.4,3.71,32.26,3.11c2.34-11.73,2.99-23.72,3.84-35.62
		c-8.6,3.8-18.0599,1.61-27.0699,1.46c-8.88-1.2799-18.85-2.76-25.21-9.73c-4.8501-7.03-5.3401-16.01-6.25-24.24
		C1430.99,1101.91,1428.38,1107.92,1425.8199,1113.96 M1407.8,1152.6801c-3.37,6.5399-6.3301,13.34-10.5701,19.37
		c-4.14,9.75-10.12,18.6-15.61,27.6399c3.83-0.3199,7.97-1.3999,10.17-4.85c3.64-4.84,1.11-11.24,3.62-16.5
		c3.38-8.1899,8.6-15.9099,15.88-21.12c3.51-2.5599,8.11-1.6799,12.14-1.3199c3.6599-7.54,8.47-14.7001,10.5-22.91
		c-1.6901-5.77-6.3601-10-10.0801-14.51C1418.7,1129.97,1413.41,1141.41,1407.8,1152.6801 M55.92,1181.1801
		c8.12,39.84,29.62,75.58,54.95,106.84c13.51,16.38,28.15,31.91,44.65,45.3099c31.24,25.9301,66.67,46.3101,103.08,64.03
		c39.06,18.84,79.73,34.3,121.15,47.11c-1.55-10.4399-0.93-21.0399-2.05-31.5c-0.23-2.47,0.72-4.78,1.31-7.1
		c-31.82-9.05-63.37-19.21-94.04-31.65c-41.04-16.62-81.1-36.25-117.59-61.46c-31.14-21.59-60.1-47.1-81.89-78.3
		C73.84,1217.76,64.55,1199.5699,55.92,1181.1801 M152.63,1346.3101c-0.74,11.87-0.45,23.7599-1.35,35.62
		c-0.13,4.33-0.93,8.86,0.6,13.0499c3,9.65,9.07,18.01,15.77,25.4401c11.56,13.22,25.52,24.1,39.78,34.25
		c36.62,25.39,77.09,44.7899,118.86,60.08c39.09,14.16,79.14,25.7,119.72,34.76c-2.98-14.36-2.83-29.21-2.06-43.79
		c-5.79-6.0499-3.56-15.22-4-22.78c-0.81-5.5399-1.89-11.0499-2.53-16.62c-2.67-0.0199-5.33-0.0599-7.98-0.2
		c-2.58,12.25-13.81,22.49-26.48,22.88c-9.44-1.15-15.57-10.0601-18.49-18.39c-1.8-4.52,1.39-8.7,3.2-12.61
		c-3.93-0.8101-6.72-3.91-7.02-7.92c-43.31-10.0499-85.51-24.6599-126.09-42.7799C218.44,1390.89,183.7,1371.08,152.63,1346.3101
		 M1252.15,1454.17c-16.53,9.75-34.17,17.35-51.5701,25.37c-19.5599,8.14-39.22,16.0599-59.33,22.74
		c-41.99,14.23-85.12,24.9199-128.65,33.1699c-71.75,13.75-144.67,20.25-217.58,23.0601c-10.35,0.8-20.73,0.25-31.08,0.75
		c-26.77,0.75-53.56,0.84-80.33,0.1799c-4.07,5.7401-8.72,11.05-13.55,16.15c6.63,0.54,13.3,0.23,19.93,0.8401
		c10.96,0.7999,21.97,0.37,32.94,1.12c26.35,0.8999,52.72,0.2999,79.07,0.45c14.7,0.13,29.36-1.01,44.05-1.05
		c6.66-0.26,13.31-1.0299,19.98-0.95c71.5099-3.75,142.96-11.71,213.0499-26.8101c44.15-9.49,87.8501-21.61,129.87-38.25
		c36.02-14.49,71.51-31.61,102.05-55.86c15.86-13.21,30.48-28.4199,40.61-46.5399c8.4401-15.3401,14.08-33.48,10.22-51
		C1332.3101,1396.73,1294.86,1429.96,1252.15,1454.17 M471.11,1400.1899c-2.34,1.0701-4.09,3.05-5.99,4.7401
		c8.93-1.14,17.94-2.2201,26.96-1.88c3.12-0.12,6.37,2.5599,5.59,5.8899c-1.37,7.3301-4.23,14.3501-7.87,20.8301
		c-1.36,2.53-3.59,5.08-6.74,4.9299c-11.59-0.22-23.17-0.7999-34.76-0.71c-7.12,8.04-5.12,19.42-5.78,29.25
		c1.3-4.38,2.26-9.9,6.84-12.0599c4.15-0.6901,8.38-0.6101,12.56-0.3601c12.79,0.25,25.5,1.8201,38.17,3.5
		c9.69,1.6901,19.7,2.7201,28.87,6.4701c5.5,3.6,5.71,11.0499,6.05,16.96c-1.81-4.11-2.22-8.9399-5.31-12.4
		c-2.14-2.4399-5.6-2.33-8.52-2.9399c-13.68-1.91-27.47-2.85-41.2-4.29c-9.62-0.46-19.25-1.85-28.88-1.12
		c-3.55,5.24-4.1,11.86-5.27,17.95c17.12,0.7101,34.17,2.5,51.13,4.9701c7.72,1.3199,15.72,1.97,23.06,4.88
		c5.52,3.8899,9.08,10,12.14,15.9199c2.1,4.52,4.38,10.65,0.48,14.89c-3.43,2.24-7.8,1.12-11.65,1.4
		c-11.71-0.46-23.42-1.23-35.08-2.38c-11.33-1.38-22.79-2.5-33.8-5.6901c2.1,6.7001,3.54,13.6201,6.05,20.2001
		c7.86,2.02,15.9,3.26,23.89,4.71c18.6,2.9,37.16,6.67,56,7.55c-0.98-7.35-1.04-14.76-1.71-22.13c3,6.6899,4.95,13.79,7.67,20.6
		c2.04,0.9,4.1,1.8,6.26,2.42c5.14-4.3201,9.7-9.3,13.82-14.5901c-1.44-8.6499-2.81-17.3099-4.3-25.95
		c-1.84,3.5699-3.87,7.62-7.87,9.16c-3.36,0.25-7.14,0-10.04-1.8301c-3.31-3.6499-3.56-8.9199-4.2-13.5499
		c-1.68-10.0901,0.75-20.6-2.61-30.4501c-1.7-5.5199-5.77-11.11-11.92-11.7699c-23-2.66-46.1-4.4701-69.21-5.77
		c-1.62-0.05-3.33-0.3501-4.87,0.27c-1.76,1.58-2.96,3.6499-4.46,5.48c-1.66-4.1801,0.16-10.5801,5.35-10.75
		c20.42,0.0599,40.81,1.5699,61.18,2.7899c7.32,1.2201,15.75-0.2899,21.92,4.7301c7.15,5.2699,9.99,14.37,10.88,22.86
		c0.13,9.9299,0.15,20.0399,2.51,29.75c1.06,0.5399,2.21,0.96,3.33,1.4399c6.06-8.64,9.81-18.62,14.66-27.9299
		c18.15,1.73,36.34,3.1,54.5,4.7699c7.01,0.3601,14.05,1.78,21.09,0.79c7.31-1.36,14.22-4.9399,19.45-10.25
		c0.54-9.5-0.02-19.23-2.05-28.5599c-13.45-0.3-26.9-0.5801-40.35-0.8601c-9.66-0.2899-19.35,0.25-28.99-0.2999
		c-12.41-7.38-24.73-17.78-28.28-32.42c-4.27-3.53-9.95-4.5399-15.2-5.77c-12.75-2.4299-25.73-3.51-38.7-3.7899
		C494.32,1399.1801,482.68,1399.12,471.11,1400.1899 M383.92,1407.03c0.11,2.2-0.23,4.6799,1.31,6.53
		c5.05,7.1299,13.69,10.12,21.33,13.6c2.62-4.2101,5.51-8.25,8.18-12.4301C404.41,1412.41,394.13,1409.84,383.92,1407.03
		 M458.64,1413.11c1.19-0.03,2.4,0.02,3.6,0c1.65-1.4399,3.45-2.6899,5.3-3.84c-1.98-0.01-3.95-0.0801-5.91-0.14
		C460.63,1410.45,459.63,1411.76,458.64,1413.11 M479.64,1410c2.68,1.42,5.4,2.79,7.78,4.71c-4.51,0.04-8.93-0.9399-13.39-1.4099
		c-3.88,0.6399-7.22,2.85-10.57,4.75c-2.42-0.55-4.85-1.2101-7.34-1.16c-1.98,0.95-3.75,2.45-5.96,2.85
		c-10.31,1.1901-20.68,1.41-31.04,1.26c-5.25,8.11-10.35,16.33-15.44,24.55c-4.41,7.2899-9.13,14.4299-12.69,22.1899
		c1.92,4.97,4.44,10.09,8.93,13.22c2.25,1.7201,5.32,1.25,7.92,0.78c7.71-2.26,14.33-8.74,16.16-16.64
		c1.63-6.89-1.87-13.59-1.35-20.48c4.24,5.21,7.41,11.49,7.31,18.37c2.37-0.01,4.75-0.01,7.13,0
		c-1.61-10.86-2.37-23.16,4.32-32.5599c3.72-5.77,11.45-3.9501,17.25-4.4301c3.16-4.23,7.64-8.38,13.28-8.16
		c4.77-0.33,8.79,2.76,11.61,6.3c2.14-4.54,4.3-9.09,5.81-13.88C486.12,1409.98,482.88,1409.9399,479.64,1410 M461.25,1425.79
		c4.88,0.4199,9.8,0.09,14.7,0.2899c2.71-0.08,5.72,0.61,8.02-1.2999c-3.62-0.91-7.34-1.29-11.03-1.62
		C468.94,1423.48,465.12,1424.83,461.25,1425.79 M385.49,1424.8101c1.08,8.4099,1.93,16.87,3.66,25.1899
		c0.73,0.5,1.48,1.01,2.24,1.55c3.95-6.9401,8.14-13.74,12.61-20.3501C397.53,1430.1,391.1,1428.28,385.49,1424.8101
		 M1344.45,1432.05c-21.1,26.6699-49.7,46.1699-79.4299,62.0599c-55.89,29.65-116.75,48.76-178.28,62.65
		c-86.25,19.15-174.51,27.66-262.69,30.25c-25.7,0.38-51.4,1.12-77.09,0.35c-13.62-0.5-27.25-0.08-40.86-0.98
		c-7.69-0.62-15.42-0.09-23.1-0.83c-7.69-0.75-15.43-0.38-23.1-1.2301c-30.97-1.34-61.83-4.2999-92.7401-6.5499
		c-3.42,2.21-5.65,5.95-8.44,8.9199c-4.73,4.9601-8.86,10.4801-13.95,15.1001c-4.34,3.7899-10.09,5.0599-15.54,6.35
		c91.76,15.11,184.89,20.6899,277.83,18.86c12.34,0.3199,24.63-1.04,36.97-1.01c79.89-3.77,159.83-12.24,237.9399-30.09
		c36.63-8.65,73.28-18.86,106.97-35.98c20.3101-9.52,40.3101-19.78,59.6001-31.24c16.5399-9.4601,32.45-20.04,47.48-31.7401
		c14.49-11.75,28.5599-24.5099,38.73-40.2999C1339.55,1449.1899,1343.35,1440.91,1344.45,1432.05 M176.7,1443.59
		c7.25,13.37,17.09,25.2001,28.27,35.4601c28.17,25.6399,61.66,44.5699,95.78,61.08c36.94,17.53,75.3,32.04,114.5,43.66
		c24.37,7.1899,49.32,12.1799,74.17,17.38c-7.19-5.1901-13.7-11.37-18.75-18.6901c-4.36-6.14-7.49-13.5599-6.67-21.22
		c-40.51-7.4-80.51-17.7-119.66-30.49c-39.93-13.14-79.03-29.3301-115.34-50.64C210.65,1469.36,192.8,1457.55,176.7,1443.59
		 M1295.78,1506.77c-31.91,25.22-67.48,45.38-104.02,63.0699c-28.37,14.55-58.95,24.16-89.75,32.0701
		c-84.72,21.3099-171.94,30.86-259.01,35.08c-8.99-0.09-17.95,0.75-26.93,0.98c-20.34,0.05-40.67,0.66-61.01,0.3101
		c-15.29-0.41-30.6-0.03-45.87-1.15c-11.37-0.0601-22.71-1.0699-34.07-1.51c-82.47-5.0599-164.76-16.17-245.12-35.8099
		c-39.96-10.4301-78.94-24.4701-116.76-41.02c-35.72-15.98-70.73-34.3301-101.65-58.51c-16.21-12.9301-31.58-27.54-42.2-45.53
		c0.26,4.79,0.41,9.6,0.74,14.41c1.49,7.85,5.64,14.88,10.11,21.4c11.46,16.37,26.6,29.6899,42.07,42.1599
		c16.15,13.13,33.7,24.5901,52.66,33.26c19.65,9.3301,39.9,17.38,60.42,24.5701c36.88,13.1699,74.52,24.11,112.53,33.51
		c45.24,11.1299,91.03,20.12,137.2,26.36c44.34,6.46,89.11,8.7899,133.86,10.0199c31.33,0.9801,62.69,1.3201,94.04,0.5601
		c11.35,0.34,22.66-1.02,34-1.02c21.67-1.29,43.33-2.6699,64.92-4.97c46.71-4.72,93.09-12.3101,139.21-21.09
		c24.74-4.76,49.48-9.6001,73.91-15.79c29.1899-7.72,57.74-18.04,84.9199-31.24c33.8301-16.66,65.54-37.96,92.73-64.17
		c12.9301-12.5,24.91-26.1,34.75-41.1899c6.75-9.97,6.4501-22.52,7.61-34.02C1334.7,1471.51,1315.78,1490.51,1295.78,1506.77
		 M446.81,1479.89c-2.85,6.73-3.28,14.8099-0.28,21.54c2.59,1.71,5.66,2.47,8.63,3.2999c11.4,2.8101,23.12,3.84,34.76,5.13
		c13.08,0.9,26.2,1.98,39.32,1.39c-0.36-7.3199-4.95-13.61-9.47-19.03c-2.96-4-8.38-3.64-12.72-4.8099
		C487.08,1484.12,466.94,1481.9,446.81,1479.89 M665.11,1483.26c5.15,4.9399,3.76,12.37,3.9,18.77
		c0.46,20.21,0.78,40.45,0.05,60.6599c1.87-2.33,4.13-4.4199,5.38-7.1699c0.59-3.13,0.55-6.3301,0.57-9.49
		c-0.05-20.9601,1.11-41.92,0.96-62.88C672.35,1483.23,668.72,1483.39,665.11,1483.26 M568.48,1483.66
		c-1.8,4.49-4.32,8.6899-5.88,13.27c1.85,10.4199,4.78,20.6399,6.42,31.1c-1.47,4.9099-5.42,8.64-8.65,12.48
		c-2.87,3-5.42,6.84-9.54,8.1799c-4.18-0.21-7.82-2.5099-11.75-3.6299c-7.35-0.2301-14.76,0.35-22.03-1.04
		c8.75,4.84,16.8,11.4399,22.1,20.02c4.0699,6.33,4.05,14.9399,0.14,21.35c-2.49,4.39-6.74,7.5-11.31,9.47
		c-7.77,3.35-16.5,3.91-24.81,2.91c-12.55-2.88-22.07-13.23-27.43-24.5c-2.81-6.34-5.3-13.9401-1.96-20.55
		c3.51-7.08,11.67-9.74,18.82-11.49c-5.19-0.27-10.32-1.14-15.41-2.1c-2.63,4.29-5.03,8.76-6.45,13.62
		c-1.84,5.98-2.95,12.79-0.05,18.63c4.06,8.6801,10.83,15.83,18.29,21.72c5.47,4.22,11.84,8.0601,19,7.97
		c8.93,0.9301,18.25,1.39,26.9-1.49c6.27-2.11,9.73-8.12,14.34-12.4299c7.04-7.92,14.42-15.53,21.7-23.24
		c4.15-4.5,8.79-8.9301,14.77-10.8c-2.7,6.04-7.11,11.0601-11.67,15.78c28.48,2.34,56.96,4.52,85.49,6.16
		c0.8-1.16,1.61-2.29,2.44-3.41c-1.16-26.21-0.65-52.46,0.06-78.67c0.39-4.26-3.59-6.86-6.22-9.52
		c-7.24,3.9401-15.43,6.3101-23.73,5.5901C610.85,1487.46,589.7,1485.14,568.48,1483.66 M450.09,1547.05
		c0.29,1.08-0.26,2.9299,1,3.58c4.83,1.15,9.73,2,14.59,3.04c1.74-5.4,4.51-10.3401,7.57-15.0701
		c-4.98-0.99-10.02-1.6799-14.97-2.7899c-2.21-0.4801-4.59-1.3401-5.54-3.5801c-3.19-6.53-3.7-13.91-4.38-21.02
		C448.2,1523.16,449.94,1535.08,450.09,1547.05 M495.15,1546.1801c-4.81,0.7899-9.71,2.12-13.68,5.0599
		c-2.94,2.1801-4.47,6-3.99,9.62c0.95,7.74,5.03,14.74,9.94,20.66c5.38,6.22,13.02,11.2,21.51,11.1
		c7.05-0.25,14.48-1.1899,20.42-5.3099c4.72-3.02,7.55-8.7301,7.08-14.3c-0.75-5.35-4.31-9.72-7.82-13.6
		c-5.43-5.4701-11.81-10.2001-19.13-12.8C504.86,1544.95,499.9,1545.7,495.15,1546.1801z"/>
	<path fill="#010101" d="M1173.79,540.72c14,10.6801,26.27,23.38,38.3999,36.09c43.13,46.83,76.66,102.3,99.05,161.85
		c15.09,41.63,23.46,85.47,27.27,129.5c4.0599,48.92,2.36,98.4301-6.36,146.78c-7.5601,41.8799-20.84,82.8701-40.8101,120.52
		c-17.8099,33.26-41.6,63.05-68.26,89.63c-28.95,28.5-61.9099,52.89-97.37,72.7001c-14.58,7.8999-29.34,15.7-45.02,21.2
		c34.4401-16.33,66.77-37.04,96.3401-61.08c31.83-26.05,60.5399-56.13,83.73-90.1801c22.51-32.36,38.67-68.84,49.4399-106.6899
		c14.4801-49.9901,20.6101-102.11,20.8-154.05c-0.47-45.75-5.48-91.6-17.12-135.92c-10.85-41.48-28.22-81.1-49.77-118.1
		C1239.64,611.49,1209.85,572.8,1173.79,540.72z"/>
	<path fill="#010101" d="M1519.23,692.49c5.9301-10.36,14.28-19.67,24.54-25.88C1538.2,677.24,1529.1899,685.94,1519.23,692.49z"/>
	<path fill="#010101" d="M1458.86,675.74c8.47,0.75,16.55,3.81,24.3201,7.12c6.1899,2.85,12.5399,5.92,17.25,11
		C1486.58,687.82,1471.87,683.55,1458.86,675.74z"/>
	<path fill="#010101" d="M1499.73,713.37c10.27,4.28,16.67,14.87,18.47,25.53c1.9601,8.97-0.0199,18.09-0.9299,27.05
		c-3.63,39.65-5.6801,79.42-8.86,119.1c-0.4501,9.78-2.98,19.27-4.99,28.81c-5.8501,26.9-11.5,53.85-16.02,81.01
		c-4.0601,24.48-5.9501,49.27-5.99,74.08c0.33,13.88,0.6,27.8301,3.36,41.49c-6.15-21.5499-5.9301-44.23-5.87-66.4399
		c-0.17-23.8,2.9199-47.46,6.63-70.92c3.85-23.84,8.51-47.54,13.1899-71.22c2.97-13.44,2.72-27.27,3.8101-40.91
		c2.09-35.7,3.9399-71.42,7.62-106.99C1511.8,739.73,1507.5601,725.23,1499.73,713.37z"/>
	<path fill="#010101" d="M1430,788.05c13.8,5.48,27.7,10.7,41.5,16.19c-0.22,0.76-0.66,2.29-0.89,3.06
		c-14-5.33-27.96-10.77-41.9-16.24C1429.11,790.04,1429.55,789.04,1430,788.05z"/>
	<path fill="#010101" d="M1390.24,920.38c2.1801-6.16,4.29-12.39,7.4-18.16c-13.1,47.78-17.1801,97.41-19.37,146.7001
		c-0.42,13.4299-0.46,26.89,0.0599,40.3099c-3.0599-14.52-3.4099-29.4299-3.97-44.21c-0.29-21.09,0.9-42.17,3.02-63.13
		C1379.73,961.05,1383.62,940.3,1390.24,920.38z"/>
	<path fill="#010101" d="M1528.84,974.98c4.4401-8.4,8.9701-16.84,14.7101-24.44c-5.12,14.58-12,28.48-17.04,43.1
		c-1.4301,3.93-1.6801,8.13-2.29,12.25c-2.98,25.3199-5.5499,50.6899-8.13,76.0499c-1.14,14.7001-3.0499,29.3501-3.25,44.1001
		c-0.9099,11.98-0.75,24.0399-2.7799,35.9099c-0.7401,5.76-2.5901,11.38-5.75,16.27c5.2699-10.9099,4.83-23.3099,5.3099-35.11
		c-0.4-47.1899,4.41-94.1799,9.58-141.02C1520.14,992.4,1524.61,983.59,1528.84,974.98z"/>
	<path fill="#010101" d="M147.68,1200.45c-14.38-24.5599-25.75-51.34-30.25-79.5699c9.36,40.03,29.93,76.9399,56.86,107.8
		c24.49,28.0599,54.54,51.0199,87.32,68.58c20.96,11.4,42.11,22.54,64.08,31.92c83.51,36.1,173.88,54.2899,264.33,60.83
		c23.14,1.85,46.37,2.25,69.55,3.52c-17.51,0.3099-35.02-0.42-52.53-0.52c-47.29-1.5601-94.53-5.9-141.15-14.26
		c-63.57-11.45-126.06-30.24-184.23-58.51c-18.51-8.6899-36-19.4399-52.53-31.4399C196.54,1265.1,168.28,1235.16,147.68,1200.45z"/>
	<path fill="#010101" d="M1326.02,1325.9399c23.53-32.6799,43-68.0199,62.97-102.9199c-5.6799,19.46-14.6899,37.77-24.25,55.58
		c-20.3,36.0601-44.83,69.79-73.05,100.0601c-26.4399,27.89-56.73,52.51-91,70.14c-39.7,20.7999-85.3099,31.0399-130.0599,26.61
		c21.34,0.2999,42.83-1.03,63.61-6.16c39.7-9.1,76.5701-28.55,108.26-53.92
		C1274.64,1389.9399,1302.0699,1359.0601,1326.02,1325.9399z"/>
	<path fill="#010101" d="M1266.65,1329.5601c10.9299-11.6101,21.6-23.4501,32.51-35.0601c-10.8,17.5699-23.7101,33.78-36.98,49.54
		c-23.3201,27.4199-49.4601,52.5399-78.62,73.7c-18.75,13.4301-39.3601,24.55-61.64,30.8201
		c-17.79,4.96-36.11,8.0199-54.4801,9.6299c19.8301-5.5599,40.1001-9.83,59.2101-17.6899c20.9399-8.16,39.9399-20.53,57.65-34.23
		C1214.02,1383.25,1240.58,1356.55,1266.65,1329.5601z"/>
	<path fill="#010101" d="M540.9,1441.13c2.5099-10.25,7.35-20.24,14.8199-27.79C553.22,1423.62,547.64,1433.0601,540.9,1441.13z"/>
	<path fill="#010101" d="M406.97,1449.97c-1.03-5.34,5.03-8.5,9.39-9.5399c-0.7,2.9199-1.95,5.6699-3.33,8.34
		c1.98,6.1699,3.35,12.63,3.03,19.15C411.94,1462.58,409.01,1456.37,406.97,1449.97z"/>
	<path fill="#010101" d="M565.52,1442.67c10.17,4.59,21.42,5.6499,32.39,6.8199c11.97,1.1901,24.01,1.95,36.06,1.59
		c7.3101-0.22,13.95-3.63,20.57-6.36c-4.16,6.35-10.98,10.9401-18.49,12.1801c-14.28,0.78-28.57-0.87-42.6-3.48
		C583.75,1451.25,573.28,1449.34,565.52,1442.67z"/>
	<path fill="#010101" d="M631.7,1462.14c2.83,3.91,2.5,8.87,2.1,13.4399C629.53,1472.55,628.81,1466.36,631.7,1462.14z"/>
	<path fill="#010101" d="M522.35,1483.8199c-2.25-5.2-0.93-11.74,3.33-15.5199C526.83,1473.7,525.05,1479.17,522.35,1483.8199z"/>
	<path fill="#010101" d="M573.82,1488.88c15.98,6.77,26.81,26.14,21,43.09c-0.73-7.8099-2.26-15.6599-6.1-22.58
		C584.81,1501.83,579.08,1495.48,573.82,1488.88z"/>
	<path fill="#010101" d="M541.01,1548.41c10.53,4.39,17.53,18.87,10.38,28.9C551.26,1566.71,545.5,1557.61,541.01,1548.41z"/>
</g>
</svg>
